<mxfile host="app.diagrams.net" modified="2024-03-05T07:47:46.839Z" agent="Mozilla/5.0 (Windows NT 10.0; Win64; x64) AppleWebKit/537.36 (KHTML, like Gecko) Chrome/122.0.0.0 Safari/537.36" etag="W0WQx0EkVb1RqNkWDTF_" version="24.0.1" type="github">
  <diagram name="第 1 页" id="NLGDhuPzV9DbrvMe4lgd">
    <mxGraphModel dx="1562" dy="1987" grid="1" gridSize="10" guides="1" tooltips="1" connect="1" arrows="1" fold="1" page="1" pageScale="1" pageWidth="827" pageHeight="1169" math="0" shadow="0">
      <root>
        <mxCell id="0" />
        <mxCell id="1" parent="0" />
        <mxCell id="ZbRRpVZSDvvmJCULz74J-1" value="Header" style="rounded=0;whiteSpace=wrap;html=1;" vertex="1" parent="1">
          <mxGeometry x="104" y="-1080" width="80" height="40" as="geometry" />
        </mxCell>
        <mxCell id="ZbRRpVZSDvvmJCULz74J-2" value="Slot" style="rounded=0;whiteSpace=wrap;html=1;" vertex="1" parent="1">
          <mxGeometry x="184" y="-1080" width="80" height="40" as="geometry" />
        </mxCell>
        <mxCell id="ZbRRpVZSDvvmJCULz74J-3" value="Slot" style="rounded=0;whiteSpace=wrap;html=1;" vertex="1" parent="1">
          <mxGeometry x="264" y="-1080" width="70" height="40" as="geometry" />
        </mxCell>
        <mxCell id="ZbRRpVZSDvvmJCULz74J-4" value="Slot" style="rounded=0;whiteSpace=wrap;html=1;" vertex="1" parent="1">
          <mxGeometry x="334" y="-1080" width="80" height="40" as="geometry" />
        </mxCell>
        <mxCell id="ZbRRpVZSDvvmJCULz74J-5" value="Index" style="rounded=0;whiteSpace=wrap;html=1;" vertex="1" parent="1">
          <mxGeometry x="414" y="-1080" width="80" height="40" as="geometry" />
        </mxCell>
        <mxCell id="ZbRRpVZSDvvmJCULz74J-6" value="Index" style="rounded=0;whiteSpace=wrap;html=1;" vertex="1" parent="1">
          <mxGeometry x="494" y="-1080" width="80" height="40" as="geometry" />
        </mxCell>
        <mxCell id="ZbRRpVZSDvvmJCULz74J-7" value="Index" style="rounded=0;whiteSpace=wrap;html=1;" vertex="1" parent="1">
          <mxGeometry x="574" y="-1080" width="80" height="40" as="geometry" />
        </mxCell>
        <mxCell id="ZbRRpVZSDvvmJCULz74J-8" value="" style="curved=1;endArrow=classic;html=1;rounded=0;entryX=0.5;entryY=1;entryDx=0;entryDy=0;exitX=0.5;exitY=1;exitDx=0;exitDy=0;" edge="1" parent="1" source="ZbRRpVZSDvvmJCULz74J-2" target="ZbRRpVZSDvvmJCULz74J-6">
          <mxGeometry width="50" height="50" relative="1" as="geometry">
            <mxPoint x="390" y="-760" as="sourcePoint" />
            <mxPoint x="440" y="-810" as="targetPoint" />
            <Array as="points">
              <mxPoint x="210" y="-940" />
              <mxPoint x="434" y="-920" />
            </Array>
          </mxGeometry>
        </mxCell>
        <mxCell id="ZbRRpVZSDvvmJCULz74J-9" value="" style="curved=1;endArrow=classic;html=1;rounded=0;exitX=0.75;exitY=0;exitDx=0;exitDy=0;" edge="1" parent="1" source="ZbRRpVZSDvvmJCULz74J-6" target="ZbRRpVZSDvvmJCULz74J-5">
          <mxGeometry width="50" height="50" relative="1" as="geometry">
            <mxPoint x="390" y="-760" as="sourcePoint" />
            <mxPoint x="630" y="-850" as="targetPoint" />
            <Array as="points">
              <mxPoint x="530" y="-1140" />
              <mxPoint x="520" y="-1150" />
              <mxPoint x="500" y="-1150" />
              <mxPoint x="480" y="-1150" />
              <mxPoint x="460" y="-1140" />
            </Array>
          </mxGeometry>
        </mxCell>
        <mxCell id="ZbRRpVZSDvvmJCULz74J-11" value="" style="curved=1;endArrow=classic;html=1;rounded=0;entryX=0.5;entryY=1;entryDx=0;entryDy=0;exitX=0.5;exitY=1;exitDx=0;exitDy=0;" edge="1" parent="1" source="ZbRRpVZSDvvmJCULz74J-4" target="ZbRRpVZSDvvmJCULz74J-7">
          <mxGeometry width="50" height="50" relative="1" as="geometry">
            <mxPoint x="390" y="-810" as="sourcePoint" />
            <mxPoint x="440" y="-860" as="targetPoint" />
            <Array as="points">
              <mxPoint x="460" y="-910" />
              <mxPoint x="570" y="-960" />
            </Array>
          </mxGeometry>
        </mxCell>
      </root>
    </mxGraphModel>
  </diagram>
</mxfile>
